HIERARCHY
ROOT Hips
{
	OFFSET 0.000000 0.000000 0.000000
	CHANNELS 6 Xposition Yposition Zposition Xrotation Yrotation Zrotation
	JOINT LeftUpLeg_virtual
	{
		OFFSET 0.000000 0.000000 0.000000
		CHANNELS 3 Xrotation Yrotation Zrotation
		JOINT LeftUpLeg
		{
			OFFSET 15.427100 -6.655098 0.678600
			CHANNELS 3 Xrotation Yrotation Zrotation
			JOINT LeftLeg
			{
				OFFSET 4.081073 -39.591068 13.024000
				CHANNELS 3 Xrotation Yrotation Zrotation
				JOINT LeftFoot
				{
					OFFSET -4.081074 -37.707932 -15.979700
					CHANNELS 3 Xrotation Yrotation Zrotation
					JOINT LeftToeBase
					{
						OFFSET 5.346399 -15.068900 20.645000
						CHANNELS 3 Xrotation Yrotation Zrotation
						JOINT LeftToe_End
						{
							OFFSET 2.754700 0.931300 11.300900
							CHANNELS 3 Xrotation Yrotation Zrotation
							End Site
							{
								OFFSET 0 0 0
							}
						}
					}
				}
			}
		}
	}
	JOINT RightUpLeg_virtual
	{
		OFFSET 0.000000 0.000000 0.000000
		CHANNELS 3 Xrotation Yrotation Zrotation
		JOINT RightUpLeg
		{
			OFFSET -15.569500 -6.655098 0.678600
			CHANNELS 3 Xrotation Yrotation Zrotation
			JOINT RightLeg
			{
				OFFSET -4.081825 -39.591045 13.023800
				CHANNELS 3 Xrotation Yrotation Zrotation
				JOINT RightFoot
				{
					OFFSET 4.081824 -37.707954 -15.979600
					CHANNELS 3 Xrotation Yrotation Zrotation
					JOINT RightToeBase
					{
						OFFSET -5.346400 -15.068900 20.645000
						CHANNELS 3 Xrotation Yrotation Zrotation
						JOINT RightToe_End
						{
							OFFSET -2.754700 0.931300 11.300900
							CHANNELS 3 Xrotation Yrotation Zrotation
							End Site
							{
								OFFSET 0 0 0
							}
						}
					}
				}
			}
		}
	}
	JOINT Spine_virtual
	{
		OFFSET 0.000000 0.000000 0.000000
		CHANNELS 3 Xrotation Yrotation Zrotation
		JOINT Spine
		{
			OFFSET -0.279200 12.230698 -2.892100
			CHANNELS 3 Xrotation Yrotation Zrotation
			JOINT Spine1
			{
				OFFSET -0.232667 10.192268 -1.242267
				CHANNELS 3 Xrotation Yrotation Zrotation
				JOINT Spine1_split
				{
					OFFSET -0.232667 10.192268 -1.242267
					CHANNELS 3 Xrotation Yrotation Zrotation
					JOINT Spine2
					{
						OFFSET -0.232667 10.192268 -1.242267
						CHANNELS 3 Xrotation Yrotation Zrotation
						JOINT Neck_virtual
						{
							OFFSET 0.000000 0.000000 0.000000
							CHANNELS 3 Xrotation Yrotation Zrotation
							JOINT Neck
							{
								OFFSET -0.418800 17.814194 8.416900
								CHANNELS 3 Xrotation Yrotation Zrotation
								JOINT Head
								{
									OFFSET 0.000000 7.031097 3.806800
									CHANNELS 3 Xrotation Yrotation Zrotation
									JOINT HeadTop_End
									{
										OFFSET 0.000000 24.646606 12.978600
										CHANNELS 3 Xrotation Yrotation Zrotation
										End Site
										{
											OFFSET 0 0 0
										}
									}
								}
							}
						}
						JOINT LeftShoulder_virtual
						{
							OFFSET 0.000000 0.000000 0.000000
							CHANNELS 3 Xrotation Yrotation Zrotation
							JOINT LeftShoulder
							{
								OFFSET 8.476499 7.247704 -3.868750
								CHANNELS 3 Xrotation Yrotation Zrotation
								JOINT LeftShoulder_split
								{
									OFFSET 8.476499 7.247704 -3.868750
									CHANNELS 3 Xrotation Yrotation Zrotation
									JOINT LeftArm
									{
										OFFSET 9.308998 -2.777710 0.208600
										CHANNELS 3 Xrotation Yrotation Zrotation
										JOINT LeftForeArm
										{
											OFFSET 29.972298 0.000000 0.000000
											CHANNELS 3 Xrotation Yrotation Zrotation
											JOINT LeftHand
											{
												OFFSET 26.026505 0.000000 0.000000
												CHANNELS 3 Xrotation Yrotation Zrotation
												End Site
												{
													OFFSET 0 0 0
												}
											}
										}
									}
								}
							}
						}
						JOINT RightShoulder_virtual
						{
							OFFSET 0.000000 0.000000 0.000000
							CHANNELS 3 Xrotation Yrotation Zrotation
							JOINT RightShoulder
							{
								OFFSET -7.570500 7.247704 -3.868750
								CHANNELS 3 Xrotation Yrotation Zrotation
								JOINT RightShoulder_split
								{
									OFFSET -7.570500 7.247704 -3.868750
									CHANNELS 3 Xrotation Yrotation Zrotation
									JOINT RightArm
									{
										OFFSET -9.308998 -2.777710 0.208500
										CHANNELS 3 Xrotation Yrotation Zrotation
										JOINT RightForeArm
										{
											OFFSET -29.972300 0.000000 0.000000
											CHANNELS 3 Xrotation Yrotation Zrotation
											JOINT RightHand
											{
												OFFSET -26.026505 0.000000 0.000000
												CHANNELS 3 Xrotation Yrotation Zrotation
												End Site
												{
													OFFSET 0 0 0
												}
											}
										}
									}
								}
							}
						}
					}
				}
			}
		}
	}
}
MOTION
Frames: 7
Frame Time: 0.03333333
-10.645926 84.908043 91.174118 0.000000 0.000000 0.000000 23.179396 14.158158 -7.100256 -31.083146 -3.950128 -5.189095 31.764614 6.628212 -5.344855 -21.803712 4.828066 11.029218 -4.335878 0.948833 -1.322028 0.000000 0.000000 0.000000 23.874824 12.286985 -6.651368 -50.851226 -5.288423 -17.602692 41.876593 0.763724 1.924935 15.324892 1.611992 16.762228 -27.911590 1.624416 -1.982385 0.000000 0.000000 0.000000 24.072927 9.642247 -7.119932 8.090052 0.481475 -3.148067 0.187651 2.520384 -0.499666 0.611000 0.118489 -0.383350 0.000000 0.000000 0.000000 -0.085625 2.589948 -0.477480 -13.557996 0.530910 -0.110538 -8.983243 2.891336 -3.059940 0.000000 0.000000 0.000000 -0.839963 2.884276 -0.706429 0.933460 -1.335130 -19.709127 -0.664611 2.084989 -1.802934 16.137693 -6.604698 -44.711818 2.566773 -64.645855 1.051246 0.000000 0.000000 0.000000 -0.190312 2.790244 -0.624494 1.189976 3.285541 18.384103 4.858586 5.337414 -2.233768 11.514791 -12.187597 50.542703 -1.805966 68.459041 2.112472 0.000000 0.000000 0.000000 
-9.917911 84.431595 97.688644 0.000000 0.000000 0.000000 22.938164 13.862154 -7.232755 -25.127866 -7.945884 -2.854472 29.049775 5.838140 -5.560831 -25.146757 2.775035 8.331381 -2.011626 1.096527 -0.285860 0.000000 0.000000 0.000000 24.032188 13.593545 -7.603367 -56.447849 -2.858168 -17.847474 41.357058 -0.778773 2.943824 17.229642 1.257427 18.551198 -22.552441 1.225423 -1.926240 0.000000 0.000000 0.000000 23.209661 9.796360 -7.135981 8.274295 -0.151358 -3.066120 0.346332 2.510043 -0.420566 0.834497 0.314005 -0.071343 0.000000 0.000000 0.000000 -0.081422 2.606337 -0.482298 -13.950821 0.249342 0.044001 -9.120191 2.385703 -2.811959 0.000000 0.000000 0.000000 -0.715483 2.855603 -0.605219 0.889594 -1.087491 -19.330924 -0.741861 1.644812 -1.543360 16.679950 -7.216838 -44.931901 2.654123 -64.670424 1.162523 0.000000 0.000000 0.000000 -0.001750 2.788818 -0.651529 1.145816 3.097989 17.880821 5.013725 5.855939 -1.414426 11.935930 -12.256961 50.229378 -2.024384 68.572142 2.155010 0.000000 0.000000 0.000000 
-9.259480 83.254852 103.416443 0.000000 0.000000 0.000000 22.723029 14.063764 -7.827212 -20.656575 -12.088366 0.807912 28.375714 3.580657 -5.482740 -25.012448 0.145157 3.321729 -3.853052 1.035866 2.509960 0.000000 0.000000 0.000000 23.754508 14.958237 -8.756757 -61.914709 -1.446651 -17.864189 40.787509 -2.203790 4.289096 17.249139 0.960130 19.992964 -14.703017 0.751543 -1.588649 0.000000 0.000000 0.000000 22.329097 10.361464 -7.451115 8.707547 -0.865023 -2.920035 0.537407 2.508370 -0.335472 1.039624 0.769413 0.238078 0.000000 0.000000 0.000000 -0.116175 2.582448 -0.478762 -14.161531 -0.048160 0.345862 -9.312672 1.841747 -2.606157 0.000000 0.000000 0.000000 -0.583485 2.810698 -0.519395 0.820398 -0.840035 -18.807074 -0.687699 1.046509 -1.095620 17.145745 -7.406085 -45.600484 2.606580 -65.056712 1.249491 0.000000 0.000000 0.000000 0.204693 2.775250 -0.676725 1.114788 3.018726 17.360635 5.053633 6.101681 -0.663139 12.631733 -12.203627 50.147816 -1.970835 68.765709 1.918291 0.000000 0.000000 0.000000 
-9.060924 81.929085 108.689789 0.000000 0.000000 0.000000 23.054199 14.369043 -8.791804 -16.033813 -14.923875 4.482861 28.262633 2.634887 -5.185414 -25.623043 -2.255984 0.181612 -7.278274 0.779454 4.998724 0.000000 0.000000 0.000000 23.982604 17.071078 -9.790960 -66.253334 -0.069849 -17.492135 39.826765 -2.513504 5.368334 14.890530 0.923780 20.256273 -7.454251 0.470500 -1.313118 0.000000 0.000000 0.000000 21.563242 11.388493 -8.046210 9.277761 -1.668890 -2.586605 0.754024 2.456499 -0.260091 1.153684 1.343615 0.616463 0.000000 0.000000 0.000000 -0.195128 2.468523 -0.441188 -14.130845 -0.242829 0.604375 -9.608187 1.456899 -2.571868 0.000000 0.000000 0.000000 -0.400583 2.703261 -0.441060 0.747499 -0.651893 -18.234273 -0.512487 0.402430 -0.678084 17.475544 -7.159976 -46.678134 2.389536 -65.430760 1.279212 0.000000 0.000000 0.000000 0.409851 2.696416 -0.699715 1.093417 3.029496 16.895880 4.963946 6.090363 0.089062 13.641626 -11.889723 50.246649 -1.703414 68.977595 1.489050 0.000000 0.000000 0.000000 
-9.257913 80.484840 113.543892 0.000000 0.000000 0.000000 23.418311 15.002932 -9.665295 -10.774740 -15.952149 7.135139 28.338007 3.495156 -4.531235 -28.628939 -3.359709 -0.473237 -9.151587 0.743962 5.628388 0.000000 0.000000 0.000000 24.205029 18.534400 -10.476502 -69.886673 1.122147 -16.344410 38.740741 -2.808707 6.098877 11.876622 0.686113 18.052011 -1.018785 0.581961 -1.241588 0.000000 0.000000 0.000000 20.796997 12.849115 -8.806898 9.818902 -2.472104 -2.114631 0.962555 2.315573 -0.181997 1.305278 1.783621 0.798256 0.000000 0.000000 0.000000 -0.280838 2.251851 -0.343079 -13.891135 -0.262998 0.663938 -9.966572 1.401895 -2.777557 0.000000 0.000000 0.000000 -0.180436 2.515194 -0.351347 0.714047 -0.568227 -17.675261 -0.258127 -0.068668 -0.429800 17.615635 -6.491685 -48.101645 1.958138 -65.420529 1.172847 0.000000 0.000000 0.000000 0.586247 2.526566 -0.685174 1.078143 3.049622 16.599798 4.935480 6.141340 0.571862 14.893724 -11.376507 50.557231 -1.389443 69.193525 1.054969 0.000000 0.000000 0.000000 
-9.455432 79.105927 118.326416 0.000000 0.000000 0.000000 23.608100 15.797007 -10.189303 -5.857128 -15.821665 8.590559 29.116236 5.067342 -3.812955 -32.713843 -2.857347 -0.562739 -8.888685 1.183460 4.025032 0.000000 0.000000 0.000000 23.523634 18.274023 -10.651251 -73.111192 1.332936 -14.970950 38.281322 -3.876209 6.647605 10.370054 -0.270724 14.251040 3.009884 0.899740 -1.163411 0.000000 0.000000 0.000000 20.325948 14.177708 -9.527603 10.206457 -3.209313 -1.602952 1.126924 2.074224 -0.086508 1.380585 1.765893 0.732589 0.000000 0.000000 0.000000 -0.341972 1.944115 -0.182697 -13.484693 -0.128749 0.509139 -10.255925 1.720402 -3.179575 0.000000 0.000000 0.000000 0.072958 2.225760 -0.227907 0.726667 -0.645753 -17.148278 0.062850 -0.205733 -0.413361 17.658768 -5.487082 -49.712419 1.391990 -64.880773 0.950344 0.000000 0.000000 0.000000 0.728764 2.270661 -0.587288 1.062904 2.973604 16.517383 4.758079 6.480189 0.829418 16.189444 -10.843827 50.978483 -1.145606 69.486977 0.751569 0.000000 0.000000 0.000000 
-9.557813 77.956131 122.876625 0.000000 0.000000 0.000000 23.344200 16.803956 -10.596447 -1.696078 -14.718117 9.137554 30.793713 6.731553 -3.510387 -35.308629 -1.667345 -0.380501 -10.875427 1.646928 1.919807 0.000000 0.000000 0.000000 22.255951 17.935064 -10.658757 -75.086004 0.819704 -13.649687 38.509081 -4.314910 6.831680 10.645473 -1.660504 11.129734 3.762437 1.037353 -0.875226 0.000000 0.000000 0.000000 20.077363 15.125585 -10.099395 10.373883 -3.771532 -1.162737 1.278842 1.738896 0.026218 1.419442 1.286853 0.664613 0.000000 0.000000 0.000000 -0.364266 1.608965 0.010045 -12.987253 0.112808 0.218665 -10.379126 2.407160 -3.673606 0.000000 0.000000 0.000000 0.278647 1.888247 -0.077076 0.765518 -0.862627 -16.659728 0.263211 -0.075672 -0.688955 17.735167 -4.236843 -51.313251 0.785953 -63.921411 0.650846 0.000000 0.000000 0.000000 0.787338 1.957102 -0.422021 1.087218 2.738568 16.670284 4.351936 7.153745 0.635600 17.326950 -10.498834 51.466633 -1.089267 69.715529 0.707543 0.000000 0.000000 0.000000 
